<?xml version="1.0" encoding="UTF-8" standalone="no"?>
<svg
   xmlns:dc="http://purl.org/dc/elements/1.1/"
   xmlns:cc="http://creativecommons.org/ns#"
   xmlns:rdf="http://www.w3.org/1999/02/22-rdf-syntax-ns#"
   xmlns:svg="http://www.w3.org/2000/svg"
   xmlns="http://www.w3.org/2000/svg"
   xmlns:sodipodi="http://sodipodi.sourceforge.net/DTD/sodipodi-0.dtd"
   xmlns:inkscape="http://www.inkscape.org/namespaces/inkscape"
   inkscape:version="1.0beta1 (84dd598, 2019-10-02)"
   sodipodi:docname="tekening.svg"
   id="svg8"
   version="1.1"
   viewBox="0 0 210 297"
   height="297mm"
   width="210mm">
  <defs
     id="defs2">
    <filter
       id="filter1110"
       style="color-interpolation-filters:sRGB;"
       inkscape:menu-tooltip="Inky splotches underneath the object"
       inkscape:menu="Protrusions"
       inkscape:label="Ink Bleed">
      <feGaussianBlur
         id="feGaussianBlur1098"
         stdDeviation="1.3"
         in="SourceGraphic"
         result="result1" />
      <feTurbulence
         id="feTurbulence1100"
         baseFrequency="0.034"
         numOctaves="4"
         result="result0" />
      <feDisplacementMap
         id="feDisplacementMap1102"
         in2="result0"
         in="result1"
         xChannelSelector="R"
         yChannelSelector="G"
         scale="19.6"
         result="result2" />
      <feColorMatrix
         id="feColorMatrix1104"
         result="result3"
         values="2 0 0 0 0 0 2 0 0 0 0 0 2 0 0 0 0 0 0.7 0" />
      <feGaussianBlur
         id="feGaussianBlur1106"
         stdDeviation="1.1"
         in="SourceGraphic"
         result="result4" />
      <feComposite
         id="feComposite1108"
         in2="result3"
         in="result4" />
    </filter>
    <filter
       id="filter1124"
       style="color-interpolation-filters:sRGB;"
       inkscape:menu-tooltip="Inky splotches underneath the object"
       inkscape:menu="Protrusions"
       inkscape:label="Ink Bleed">
      <feGaussianBlur
         id="feGaussianBlur1112"
         stdDeviation="1.3"
         in="SourceGraphic"
         result="result1" />
      <feTurbulence
         id="feTurbulence1114"
         baseFrequency="0.034"
         numOctaves="4"
         result="result0" />
      <feDisplacementMap
         id="feDisplacementMap1116"
         in2="result0"
         in="result1"
         xChannelSelector="R"
         yChannelSelector="G"
         scale="19.6"
         result="result2" />
      <feColorMatrix
         id="feColorMatrix1118"
         result="result3"
         values="2 0 0 0 0 0 2 0 0 0 0 0 2 0 0 0 0 0 0.7 0" />
      <feGaussianBlur
         id="feGaussianBlur1120"
         stdDeviation="1.1"
         in="SourceGraphic"
         result="result4" />
      <feComposite
         id="feComposite1122"
         in2="result3"
         in="result4" />
    </filter>
    <filter
       id="filter1138"
       style="color-interpolation-filters:sRGB;"
       inkscape:menu-tooltip="Inky splotches underneath the object"
       inkscape:menu="Protrusions"
       inkscape:label="Ink Bleed">
      <feGaussianBlur
         id="feGaussianBlur1126"
         stdDeviation="1.3"
         in="SourceGraphic"
         result="result1" />
      <feTurbulence
         id="feTurbulence1128"
         baseFrequency="0.034"
         numOctaves="4"
         result="result0" />
      <feDisplacementMap
         id="feDisplacementMap1130"
         in2="result0"
         in="result1"
         xChannelSelector="R"
         yChannelSelector="G"
         scale="19.6"
         result="result2" />
      <feColorMatrix
         id="feColorMatrix1132"
         result="result3"
         values="2 0 0 0 0 0 2 0 0 0 0 0 2 0 0 0 0 0 0.7 0" />
      <feGaussianBlur
         id="feGaussianBlur1134"
         stdDeviation="1.1"
         in="SourceGraphic"
         result="result4" />
      <feComposite
         id="feComposite1136"
         in2="result3"
         in="result4" />
    </filter>
    <filter
       id="filter1152"
       style="color-interpolation-filters:sRGB;"
       inkscape:menu-tooltip="Inky splotches underneath the object"
       inkscape:menu="Protrusions"
       inkscape:label="Ink Bleed">
      <feGaussianBlur
         id="feGaussianBlur1140"
         stdDeviation="1.3"
         in="SourceGraphic"
         result="result1" />
      <feTurbulence
         id="feTurbulence1142"
         baseFrequency="0.034"
         numOctaves="4"
         result="result0" />
      <feDisplacementMap
         id="feDisplacementMap1144"
         in2="result0"
         in="result1"
         xChannelSelector="R"
         yChannelSelector="G"
         scale="19.6"
         result="result2" />
      <feColorMatrix
         id="feColorMatrix1146"
         result="result3"
         values="2 0 0 0 0 0 2 0 0 0 0 0 2 0 0 0 0 0 0.7 0" />
      <feGaussianBlur
         id="feGaussianBlur1148"
         stdDeviation="1.1"
         in="SourceGraphic"
         result="result4" />
      <feComposite
         id="feComposite1150"
         in2="result3"
         in="result4" />
    </filter>
  </defs>
  <sodipodi:namedview
     inkscape:window-maximized="0"
     inkscape:window-y="0"
     inkscape:window-x="0"
     inkscape:window-height="878"
     inkscape:window-width="1440"
     showgrid="false"
     inkscape:document-rotation="0"
     inkscape:current-layer="layer1"
     inkscape:document-units="mm"
     inkscape:cy="243.36584"
     inkscape:cx="392.44563"
     inkscape:zoom="1.4177448"
     inkscape:pageshadow="2"
     inkscape:pageopacity="0.0"
     borderopacity="1.0"
     bordercolor="#666666"
     pagecolor="#ffffff"
     id="base" />
  <metadata
     id="metadata5">
    <rdf:RDF>
      <cc:Work
         rdf:about="">
        <dc:format>image/svg+xml</dc:format>
        <dc:type
           rdf:resource="http://purl.org/dc/dcmitype/StillImage" />
      </cc:Work>
    </rdf:RDF>
  </metadata>
  <g
     style="display:inline"
     id="layer1"
     inkscape:groupmode="layer"
     inkscape:label="Laag 1">
    <rect
       y="34.525196"
       x="93.871208"
       height="58.599522"
       width="43.483086"
       id="rect897"
       style="fill:#ffffff;stroke:#000000;stroke-width:1.76;stroke-linecap:round;stroke-linejoin:round;stroke-miterlimit:4;stroke-dasharray:none;stroke-opacity:1" />
    <path
       inkscape:connector-curvature="0"
       id="path917"
       d="m 99.778189,54.392553 c 2.117501,-2.327862 2.615731,1.357919 4.359561,0.19399 1.74382,-1.163933 1.61926,-1.939886 2.86485,-0.581966 1.24559,1.357918 1.49471,0.775952 2.74029,-0.19399 1.2456,-0.96994 1.49471,0.19399 2.7403,0.581966 1.24559,0.387976 1.74382,0.387976 2.98941,-0.775953 1.24559,-1.163933 0.99647,-0.387976 2.24206,0.581964 1.24559,0.969942 0.99647,0.969942 2.24205,-0.193987 1.2456,-1.16393 0.24913,-0.969943 1.86839,0.387976 1.61927,1.357919 1.86838,0.581966 2.74029,-0.387976 0.87192,-0.969943 2.36662,1.163929 2.36662,1.163929"
       style="fill:none;stroke:#000000;stroke-width:0.887075;stroke-linecap:butt;stroke-linejoin:miter;stroke-miterlimit:4;stroke-dasharray:none;stroke-opacity:1;filter:url(#filter1110)" />
    <path
       style="display:inline;fill:none;stroke:#000000;stroke-width:0.887076;stroke-linecap:butt;stroke-linejoin:miter;stroke-miterlimit:4;stroke-dasharray:none;stroke-opacity:1;filter:url(#filter1138)"
       d="m 99.778195,67.657409 c 2.117495,-2.327863 2.615725,1.357919 4.359555,0.19399 1.74382,-1.163933 1.61926,-1.939886 2.86485,-0.581967 1.24559,1.357919 1.49471,0.775953 2.74029,-0.193989 1.2456,-0.96994 1.49471,0.193989 2.7403,0.581966 1.24559,0.387976 1.74382,0.387976 2.98941,-0.775953 1.24559,-1.163933 0.99647,-0.387977 2.24206,0.581963 1.24559,0.969942 0.99647,0.969942 2.24205,-0.193987 1.2456,-1.163929 0.24913,-0.969943 1.86839,0.387977 1.61927,1.357919 1.86838,0.581965 2.74029,-0.387977 0.87192,-0.969943 2.36662,1.163929 2.36662,1.163929"
       id="path917-0"
       inkscape:connector-curvature="0" />
    <path
       style="display:inline;fill:none;stroke:#000000;stroke-width:0.887076;stroke-linecap:butt;stroke-linejoin:miter;stroke-miterlimit:4;stroke-dasharray:none;stroke-opacity:1;filter:url(#filter1124)"
       d="m 99.778184,60.759684 c 2.117506,-2.327862 2.615736,1.357919 4.359566,0.19399 1.74382,-1.163933 1.61926,-1.939886 2.86485,-0.581966 1.24559,1.357918 1.49471,0.775952 2.74029,-0.19399 1.2456,-0.96994 1.49471,0.19399 2.7403,0.581966 1.24559,0.387976 1.74382,0.387976 2.98941,-0.775953 1.24559,-1.163933 0.99647,-0.387977 2.24206,0.581963 1.24559,0.969942 0.99647,0.969942 2.24205,-0.193986 1.2456,-1.16393 0.24913,-0.969943 1.86839,0.387976 1.61927,1.357919 1.86838,0.581966 2.74029,-0.387976 0.87192,-0.969943 2.36662,1.163928 2.36662,1.163928"
       id="path917-03"
       inkscape:connector-curvature="0" />
    <path
       style="display:inline;fill:none;stroke:#000000;stroke-width:0.887076;stroke-linecap:butt;stroke-linejoin:miter;stroke-miterlimit:4;stroke-dasharray:none;stroke-opacity:1;filter:url(#filter1152)"
       d="m 99.778184,74.02454 c 2.117506,-2.327863 2.615736,1.357918 4.359566,0.19399 1.74382,-1.163933 1.61926,-1.939886 2.86485,-0.581967 1.24559,1.357919 1.49471,0.775952 2.74029,-0.19399 1.2456,-0.96994 1.49471,0.19399 2.7403,0.581967 1.24559,0.387975 1.74382,0.387975 2.98941,-0.775953 1.24559,-1.163933 0.99647,-0.387977 2.24206,0.581963 1.24559,0.969942 0.99647,0.969942 2.24205,-0.193987 1.2456,-1.16393 0.24913,-0.969943 1.86839,0.387977 1.61927,1.357918 1.86838,0.581965 2.74029,-0.387977 0.87192,-0.969943 2.36662,1.163929 2.36662,1.163929"
       id="path917-7"
       inkscape:connector-curvature="0" />
    <text
       transform="scale(0.81800761,1.2224825)"
       id="text1006"
       y="38.486965"
       x="122.37286"
       style="font-style:normal;font-weight:normal;font-size:7.90023px;line-height:1.25;font-family:sans-serif;fill:#000000;fill-opacity:1;stroke:none;stroke-width:0.197506"
       xml:space="preserve"><tspan
         style="font-style:normal;font-variant:normal;font-weight:bold;font-stretch:normal;font-family:Tahoma;-inkscape-font-specification:Tahoma;stroke-width:0.197506"
         y="38.486965"
         x="122.37286"
         id="tspan1004"
         sodipodi:role="line">PRIVACY</tspan></text>
  </g>
  <g
     inkscape:label="slotje"
     id="layer2"
     inkscape:groupmode="layer">
    <g
       transform="matrix(1.3592379,0,0,1.1855404,32.029396,-21.497967)"
       style="display:inline"
       id="g960">
      <g
         id="g967"
         transform="matrix(0.70466655,0,0,0.72935161,21.136955,24.074032)">
        <path
           style="fill:none;stroke:#743800;stroke-width:1.69878;stroke-linecap:round;stroke-linejoin:round;stroke-miterlimit:4;stroke-dasharray:none;stroke-opacity:1"
           d="m 69.604451,88.692097 c -0.549233,-1.492947 -0.37705,-4.531109 1.958334,-4.406265 2.20894,0.118085 2.283221,2.756348 2.339573,4.296422"
           id="path883"
           inkscape:connector-curvature="0"
           sodipodi:nodetypes="csc" />
        <rect
           style="fill:#dcb42c;stroke:none;stroke-width:0.115074;stroke-linecap:round;stroke-linejoin:round;stroke-miterlimit:4;stroke-dasharray:none;stroke-opacity:1"
           id="rect887"
           width="8.8466702"
           height="6.6983366"
           x="67.146461"
           y="87.767448" />
        <g
           id="g895"
           style="fill:#6c5353"
           transform="matrix(0.40172916,0,0,0.36624902,11.967238,67.740791)">
          <ellipse
             ry="2.7060287"
             rx="2.6127174"
             cy="62.798531"
             cx="148.36504"
             id="path889"
             style="fill:#6c5353;stroke:none;stroke-width:0.3;stroke-linecap:round;stroke-linejoin:round;stroke-miterlimit:4;stroke-dasharray:none;stroke-opacity:1" />
          <rect
             y="64.198204"
             x="146.68542"
             height="6.1585484"
             width="3.7324536"
             id="rect891"
             style="fill:#6c5353;stroke:none;stroke-width:0.3;stroke-linecap:round;stroke-linejoin:round;stroke-miterlimit:4;stroke-dasharray:none;stroke-opacity:1" />
        </g>
      </g>
    </g>
  </g>
</svg>
